<?xml version="1.0" encoding="utf-8"?>
<!-- Generator: Adobe Illustrator 16.0.0, SVG Export Plug-In . SVG Version: 6.00 Build 0)  -->
<!DOCTYPE svg PUBLIC "-//W3C//DTD SVG 1.1//EN" "http://www.w3.org/Graphics/SVG/1.1/DTD/svg11.dtd">
<svg version="1.1" id="Layer_1" xmlns="http://www.w3.org/2000/svg" xmlns:xlink="http://www.w3.org/1999/xlink" x="0px" y="0px"
	 width="195px" height="195px" viewBox="0 0 195 195" enable-background="new 0 0 195 195" xml:space="preserve">
<path fill="#12100E" d="M0,0v195h195V0H0z M162,46.201l-10.458,10.027c-0.901,0.688-1.349,1.817-1.162,2.935v73.675
	c-0.187,1.117,0.261,2.246,1.162,2.934l10.214,10.027V148h-51.373v-2.201l10.58-10.271c1.04-1.039,1.04-1.346,1.04-2.935V73.042
	l-29.417,74.714h-3.975L54.362,73.042v50.074c-0.286,2.105,0.414,4.225,1.896,5.748l13.76,16.691v2.201H31v-2.201l13.761-16.691
	c1.471-1.525,2.13-3.658,1.773-5.748V65.216c0.163-1.608-0.451-3.198-1.651-4.28L32.651,46.201V44H70.63l29.356,64.381L125.795,44
	H162V46.201z"/>
</svg>
